<?xml version="1.0" encoding="utf-8"?>
<!-- Generator: Adobe Illustrator 18.1.1, SVG Export Plug-In . SVG Version: 6.00 Build 0)  -->
<svg version="1.1" id="Capa_1" xmlns="http://www.w3.org/2000/svg" xmlns:xlink="http://www.w3.org/1999/xlink" x="0px" y="0px"
	 viewBox="0 0 459.4 72" enable-background="new 0 0 459.4 72" xml:space="preserve">
<g>
	<g>
		<path fill="#05486F" d="M123.7,15.4c-7.1,0-9.5,5.1-9.5,5.1h-0.1c0,0,0.1-0.9,0.1-2.1V16h-5v39.5h5.4V42.8c0-1.5-0.1-2.5-0.1-2.5
			h0.1c0,0,2.5,4.6,8.7,4.6c7.4,0,12.8-5.8,12.8-14.8C136.2,21.4,131.3,15.4,123.7,15.4z M122.5,40.4c-5.2,0-8-5-8-10.1
			c0-7.2,3.9-10.2,8.2-10.2c4.7,0,8,4,8,10.1C130.7,36.7,127,40.4,122.5,40.4z M65.5,20.2c-5.9,0-11.2,4.3-11.2,12.1
			c0,7.3,5.4,12,11.9,12c5,0,8.2-3.2,8.2-3.2l-1.1-1.6c0,0-2.7,2.9-7.1,2.9c-5.3,0-9.9-3.8-9.9-10.5h18.5c0,0,0.1-0.7,0.1-1.2
			C74.9,25.1,71.8,20.2,65.5,20.2z M56.5,30.1c0.8-5.4,4.7-8.1,9-8.1c3.8,0,7.2,2.5,7.4,8.1H56.5z M22.9,23.5c0,1.1,0.1,1.8,0.1,1.8
			h-0.1c0,0-2.1-5.2-7.9-5.2c-6,0-10.3,4.7-10.3,12.1c0,7.1,3.8,12.1,9.9,12.1c6.4,0,8.3-5.2,8.3-5.2h0.1c0,0-0.2,0.8-0.2,2V53h1.9
			V20.7h-1.9V23.5z M14.7,42.4c-4.7,0-8-4-8-10.2c0-6.4,3.7-10.2,8.2-10.2c5.4,0,8,5,8,10.1C22.9,39.4,19,42.4,14.7,42.4z M47.8,32
			c0,5.4-3.7,10.4-9.4,10.4c-5.2,0-5.7-3.8-5.7-7.8V20.7h-1.9v14.6c0,5.8,1.9,9,7.6,9c5.6,0,8.7-4.3,9.5-6.5H48c0,0-0.2,0.8-0.2,1.9
			v4.1h1.9v-23h-1.9V32z M145.8,23.1h-0.1c0,0,0.1-1,0.1-2.1V16h-5.3v28.3h5.4V32.8c0-1.7,0.2-3.5,0.7-5.1c1.3-4.2,4.5-6.7,7.9-6.7
			c0.8,0,1.6,0.2,1.6,0.2v-5.4c0,0-0.7-0.1-1.4-0.1C150.4,15.7,147.1,18.9,145.8,23.1z M92.2,15.4c-6.5,0-10.6,3.4-10.6,3.4l2.2,4
			c0,0,3.5-2.7,7.9-2.7c3.6,0,6.2,1.6,6.2,6.2v0.5h-1.2c-4.8,0-17.1,0.4-17.1,9.7c0,5.6,4.8,8.6,9.6,8.6c6.8,0,9.1-5.6,9.1-5.6h0.1
			c0,0-0.1,0.9-0.1,2.2v2.7h5V26.4C103.4,19.3,99.4,15.4,92.2,15.4z M98,31.6c0,4.2-3,9-7.5,9c-3.5,0-5.3-2.2-5.3-4.5
			c0-5.1,7.4-5.4,11.5-5.4H98V31.6z M365.2,23.5c0-2.5,2.3-3.5,4.6-3.5c4.5,0,7,2.5,7,2.5l2.2-4.1c0,0-2.9-3.1-9.1-3.1
			c-5.6,0-10.2,2.9-10.2,8c0,9.2,14.5,8.2,14.5,13.4c0,2.3-2.4,3.5-4.7,3.5c-4.9,0-8.1-3.3-8.1-3.3l-2.6,3.9c0,0,3.8,4.1,10.7,4.1
			c6.2,0,10.2-3.5,10.2-8.2C379.7,27.5,365.2,28.6,365.2,23.5z M396.7,21c-5.8,0-9,4.3-9.8,6.5h-0.1c0,0,0.2-0.8,0.2-1.9V12.4h-1.9
			v32.2h1.9V33.4c0-1.1,0.1-2.2,0.4-3.1c1.1-4.3,5-7.3,9.3-7.3c5.2,0,5.7,3.8,5.7,7.8v13.9h1.9V30C404.3,24.6,402.7,21,396.7,21z
			 M341.6,15.4c-8.4,0-15.3,6.2-15.3,14.8c0,8.6,6.8,14.9,15.3,14.9c8.4,0,15.3-6.3,15.3-14.9C356.9,21.6,350,15.4,341.6,15.4z
			 M341.6,40.3c-5.3,0-9.7-4.2-9.7-10.2c0-5.9,4.4-10.1,9.7-10.1c5.4,0,9.7,4.2,9.7,10.1C351.3,36.1,347,40.3,341.6,40.3z
			 M452.6,21.6L445,40c-0.5,1.1-0.8,2.2-0.8,2.2h-0.1c0,0-0.4-1.1-0.8-2.2l-7.6-18.4h-2.1l9.5,22.9l-7.3,16.7
			c-0.9,2.2-2.3,4.1-4.5,4.1c-1.6,0-2.9-1.1-2.9-1.1l-0.9,1.7c0,0,1.5,1.3,3.7,1.3c2.9,0,4.8-1.9,5.8-4.3l17.5-41.3H452.6z
			 M432.4,33c0-6.7-5.3-11.9-11.9-11.9c-6.6,0-11.9,5.2-11.9,11.9c0,6.9,5.3,12.2,11.9,12.2C427.1,45.2,432.4,39.8,432.4,33z
			 M420.5,43.3c-5.5,0-9.9-4.5-9.9-10.3c0-5.7,4.4-10,9.9-10c5.5,0,9.9,4.3,9.9,10C430.4,38.8,426,43.3,420.5,43.3z M171.3,15.4
			c-8,0-14.1,5.8-14.1,14.8c0,8.4,6.1,14.8,15,14.8c6.8,0,11-4,11-4l-2.2-4c0,0-3.5,3.3-8.4,3.3c-5,0-9.4-3.1-9.7-9.3h20.6
			c0,0,0.2-1.6,0.2-2.3C183.6,21.3,179.3,15.4,171.3,15.4z M162.9,26.9c0.8-4.6,4.1-7.2,8.3-7.2c3.6,0,6.7,2.3,6.8,7.2H162.9z
			 M313.2,15.4c-4.6,0-8.5,3-10.1,6.4H303c-1-4.2-3.7-6.4-8.5-6.4c-4.4,0-8.4,3.2-9.7,6.5h-0.1c0,0,0.1-0.9,0.1-2.1V16h-5.3v28.3
			h5.4V31.4c0-1.3,0.1-2.6,0.3-3.7c1.1-4,4-7.4,8.1-7.4c4.4,0,4.9,3.4,4.9,7.1v16.9h5.4V31.4c0-1.5,0.1-2.7,0.4-3.9
			c1-3.9,4-7.2,7.9-7.2c4.3,0,5,3.1,5,7.1v16.9h5.4V26.2C322.5,19,319.6,15.4,313.2,15.4z M203.8,15.4c-6.2,0-9.5,4-10.6,6.5h-0.1
			c0,0,0.1-0.9,0.1-2.1V16h-5.3v28.3h5.4V31.1c0-1.4,0.1-2.7,0.4-3.8c1.2-4.1,4.6-6.9,8.9-6.9c4.5,0,5.4,3.1,5.4,7.1v16.9h5.4V26.2
			C213.5,19,210.4,15.4,203.8,15.4z M239.1,17.9c0,1.1,0.1,1.9,0.1,1.9h-0.1c0,0-2.2-4.5-8.7-4.5c-7.5,0-12.8,5.8-12.8,14.8
			c0,8.8,4.8,14.8,12.5,14.8c7,0,9.3-5.3,9.3-5.3h0.1c0,0-0.1,0.8-0.1,1.9v2.7h5.1V4.9h-5.4V17.9z M231.1,40.3c-4.7,0-8-4-8-10.1
			c0-6.4,3.7-10.1,8.2-10.1c5.4,0,8,5,8,10.1C239.2,37.3,235.3,40.3,231.1,40.3z M262.9,15.4c-8.1,0-14.1,5.8-14.1,14.8
			c0,8.4,6.1,14.8,15,14.8c6.8,0,11-4,11-4l-2.2-4c0,0-3.5,3.3-8.4,3.3c-5,0-9.4-3.1-9.7-9.3H275c0,0,0.2-1.6,0.2-2.3
			C275.2,21.3,270.9,15.4,262.9,15.4z M254.6,26.9c0.8-4.6,4.1-7.2,8.3-7.2c3.6,0,6.7,2.3,6.8,7.2H254.6z"/>
		<path fill="#05486F" d="M394.7,50c2.8,0,4.2,1.7,4.2,1.7l-0.8,1.2c0,0-1.3-1.4-3.4-1.4c-2.5,0-4.5,1.9-4.5,4.7
			c0,2.7,2,4.7,4.6,4.7c2.4,0,3.7-1.6,3.7-1.6l0.7,1.2c0,0-1.6,1.8-4.5,1.8c-3.4,0-6.1-2.5-6.1-6.1C388.6,52.5,391.3,50,394.7,50z"
			/>
		<path fill="#05486F" d="M406.5,50c3.4,0,6.1,2.6,6.1,6c0,3.5-2.8,6.1-6.1,6.1c-3.4,0-6.1-2.6-6.1-6.1
			C400.4,52.6,403.1,50,406.5,50z M406.5,60.8c2.5,0,4.5-2,4.5-4.7c0-2.6-2-4.6-4.5-4.6c-2.5,0-4.5,2-4.5,4.6
			C402,58.7,404,60.8,406.5,60.8z"/>
		<path fill="#05486F" d="M414.7,50.3h1.5V52c0,0.5,0,0.9,0,0.9h0c0.6-1.6,2.4-2.9,4.2-2.9c2.2,0,3.3,1,3.6,2.9h0
			c0.6-1.6,2.3-2.9,4.3-2.9c2.8,0,3.9,1.6,3.9,4.5v7.4h-1.6v-7c0-1.9-0.4-3.5-2.5-3.5c-1.8,0-3.2,1.6-3.7,3.3
			c-0.2,0.5-0.2,1.1-0.2,1.7v5.5h-1.6v-7c0-1.8-0.3-3.5-2.4-3.5c-1.9,0-3.3,1.6-3.8,3.4c-0.1,0.5-0.2,1-0.2,1.5v5.5h-1.6V50.3z"/>
		<path fill="#05486F" d="M382.2,61.8c1.9,0,3.3-1.4,3.3-3.4c0-2-1.4-3.4-3.3-3.4c-1.9,0-3.3,1.4-3.3,3.4
			C378.9,60.4,380.3,61.8,382.2,61.8z"/>
	</g>
</g>
</svg>
